# MagicaVoxel @ Ephtracy

# group
o 

# material
mtllib tech-wall-trim.mtl
usemtl palette

# normals
vn -1 0 0
vn 1 0 0
vn 0 0 1
vn 0 0 -1
vn 0 -1 0
vn 0 1 0

# texcoords
vt 0.587891 0.5
vt 0.681641 0.5
vt 0.716797 0.5

# verts
v 0 2 0
v 0 2 -0.1
v 0 5.2 0
v 0 5.2 -0.1
v 0.2 3 0
v 0.2 3 -0.1
v 0.2 3.1 0
v 0.2 3.1 -0.1
v 0.3 4.8 0
v 0.3 4.8 -0.1
v 0.3 5 0
v 0.3 5 -0.1
v 0.4 2.1 0
v 0.4 2.1 -0.1
v 0.4 2.3 0
v 0.4 2.3 -0.1
v 0.4 2.4 0
v 0.4 2.4 -0.1
v 0.4 2.7 0
v 0.4 2.7 -0.1
v 0.7 2.1 0
v 0.7 2.1 -0.1
v 0.7 2.2 0
v 0.7 2.2 -0.1
v 0.7 2.5 0
v 0.7 2.5 -0.1
v 0.7 2.6 0
v 0.7 2.6 -0.1
v 1.1 2.1 0
v 1.1 2.1 -0.1
v 1.1 2.2 0
v 1.1 2.2 -0.1
v 1.1 2.3 0
v 1.1 2.3 -0.1
v 0.1 2.2 0
v 0.1 2.2 -0.1
v 0.1 2.3 0
v 0.1 2.3 -0.1
v 0.1 2.5 0
v 0.1 2.5 -0.1
v 0.1 2.6 0
v 0.1 2.6 -0.1
v 0.1 2.9 0
v 0.1 2.9 -0.1
v 0.1 3.1 0
v 0.1 3.1 -0.1
v 0.1 3.4 0
v 0.1 3.4 -0.1
v 0.1 3.6 0
v 0.1 3.6 -0.1
v 0.1 3.7 0
v 0.1 3.7 -0.1
v 0.1 3.8 0
v 0.1 3.8 -0.1
v 0.1 3.9 0
v 0.1 3.9 -0.1
v 0.1 4 0
v 0.1 4 -0.1
v 0.1 4.1 0
v 0.1 4.1 -0.1
v 0.1 4.2 0
v 0.1 4.2 -0.1
v 0.1 4.3 0
v 0.1 4.3 -0.1
v 0.1 4.5 0
v 0.1 4.5 -0.1
v 0.1 4.6 0
v 0.1 4.6 -0.1
v 0.1 4.7 0
v 0.1 4.7 -0.1
v 0.1 4.9 0
v 0.1 4.9 -0.1
v 0.1 5 0
v 0.1 5 -0.1
v 0.2 2.3 0
v 0.2 2.3 -0.1
v 0.2 2.4 0
v 0.2 2.4 -0.1
v 0.2 2.8 0
v 0.2 2.8 -0.1
v 0.2 2.9 0
v 0.2 2.9 -0.1
v 0.2 4 0
v 0.2 4 -0.1
v 0.2 4.1 0
v 0.2 4.1 -0.1
v 0.2 4.7 0
v 0.2 4.7 -0.1
v 0.2 4.8 0
v 0.2 4.8 -0.1
v 0.2 4.9 0
v 0.2 4.9 -0.1
v 0.3 2.1 0
v 0.3 2.1 -0.1
v 0.3 2.2 0
v 0.3 2.2 -0.1
v 0.3 2.4 0
v 0.3 2.4 -0.1
v 0.3 2.5 0
v 0.3 2.5 -0.1
v 0.3 2.6 0
v 0.3 2.6 -0.1
v 0.3 2.7 0
v 0.3 2.7 -0.1
v 0.3 3.1 0
v 0.3 3.1 -0.1
v 0.3 3.2 0
v 0.3 3.2 -0.1
v 0.3 3.3 0
v 0.3 3.3 -0.1
v 0.3 3.4 0
v 0.3 3.4 -0.1
v 0.3 4.2 0
v 0.3 4.2 -0.1
v 0.3 4.3 0
v 0.3 4.3 -0.1
v 0.3 4.5 0
v 0.3 4.5 -0.1
v 0.3 4.6 0
v 0.3 4.6 -0.1
v 0.3 5.1 0
v 0.3 5.1 -0.1
v 0.3 5.2 0
v 0.3 5.2 -0.1
v 0.4 3.8 0
v 0.4 3.8 -0.1
v 0.4 3.9 0
v 0.4 3.9 -0.1
v 0.4 4.8 0
v 0.4 4.8 -0.1
v 0.4 4.9 0
v 0.4 4.9 -0.1
v 0.4 5 0
v 0.4 5 -0.1
v 0.4 5.1 0
v 0.4 5.1 -0.1
v 0.5 2.1 0
v 0.5 2.1 -0.1
v 0.5 2.2 0
v 0.5 2.2 -0.1
v 0.5 2.5 0
v 0.5 2.5 -0.1
v 0.5 2.7 0
v 0.5 2.7 -0.1
v 0.5 3.2 0
v 0.5 3.2 -0.1
v 0.5 3.3 0
v 0.5 3.3 -0.1
v 0.5 4.9 0
v 0.5 4.9 -0.1
v 0.5 5 0
v 0.5 5 -0.1
v 0.6 2.2 0
v 0.6 2.2 -0.1
v 0.6 2.3 0
v 0.6 2.3 -0.1
v 0.6 2.7 0
v 0.6 2.7 -0.1
v 0.6 2.8 0
v 0.6 2.8 -0.1
v 0.6 3.6 0
v 0.6 3.6 -0.1
v 0.6 3.7 0
v 0.6 3.7 -0.1
v 0.7 3 0
v 0.7 3 -0.1
v 0.7 3.1 0
v 0.7 3.1 -0.1
v 0.8 2.5 0
v 0.8 2.5 -0.1
v 0.8 2.6 0
v 0.8 2.6 -0.1
v 0.9 2.1 0
v 0.9 2.1 -0.1
v 0.9 2.2 0
v 0.9 2.2 -0.1
v 0.9 2.4 0
v 0.9 2.4 -0.1
v 0.9 2.5 0
v 0.9 2.5 -0.1
v 1.2 2.1 0
v 1.2 2.1 -0.1
v 1.2 2.2 0
v 1.2 2.2 -0.1
v 1.2 2.3 0
v 1.2 2.3 -0.1
v 1.4 2 0
v 1.4 2 -0.1
v 1.4 2.1 0
v 1.4 2.1 -0.1
v 0 2 0
v 0 5.2 0
v 0.1 2.1 0
v 0.1 2.2 0
v 0.1 2.3 0
v 0.1 2.4 0
v 0.1 2.5 0
v 0.1 2.6 0
v 0.1 2.7 0
v 0.1 2.8 0
v 0.1 2.9 0
v 0.1 3.1 0
v 0.1 3.2 0
v 0.1 3.3 0
v 0.1 3.4 0
v 0.1 3.6 0
v 0.1 3.7 0
v 0.1 3.8 0
v 0.1 3.9 0
v 0.1 4 0
v 0.1 4.1 0
v 0.1 4.2 0
v 0.1 4.3 0
v 0.1 4.5 0
v 0.1 4.6 0
v 0.1 4.7 0
v 0.1 4.8 0
v 0.1 4.9 0
v 0.1 5 0
v 0.1 5.1 0
v 0.1 5.2 0
v 0.2 2.3 0
v 0.2 2.4 0
v 0.2 2.5 0
v 0.2 2.8 0
v 0.2 2.9 0
v 0.2 3 0
v 0.2 3.1 0
v 0.2 3.2 0
v 0.2 4 0
v 0.2 4.1 0
v 0.2 4.5 0
v 0.2 4.6 0
v 0.2 4.7 0
v 0.2 4.8 0
v 0.2 4.9 0
v 0.3 2.1 0
v 0.3 2.2 0
v 0.3 2.4 0
v 0.3 2.5 0
v 0.3 2.6 0
v 0.3 2.7 0
v 0.3 3.1 0
v 0.3 3.2 0
v 0.3 3.3 0
v 0.3 3.4 0
v 0.3 4.2 0
v 0.3 4.3 0
v 0.3 4.5 0
v 0.3 4.6 0
v 0.3 4.8 0
v 0.3 5 0
v 0.3 5.1 0
v 0.3 5.2 0
v 0.4 2.1 0
v 0.4 2.3 0
v 0.4 2.4 0
v 0.4 2.7 0
v 0.4 3.8 0
v 0.4 3.9 0
v 0.4 4.8 0
v 0.4 4.9 0
v 0.4 5 0
v 0.4 5.1 0
v 0.5 2.1 0
v 0.5 2.2 0
v 0.5 2.5 0
v 0.5 2.7 0
v 0.5 3.2 0
v 0.5 3.3 0
v 0.5 3.6 0
v 0.5 3.7 0
v 0.5 4.9 0
v 0.5 5 0
v 0.6 2.2 0
v 0.6 2.3 0
v 0.6 2.7 0
v 0.6 2.8 0
v 0.6 3 0
v 0.6 3.1 0
v 0.6 3.6 0
v 0.6 3.7 0
v 0.7 2.1 0
v 0.7 2.2 0
v 0.7 2.5 0
v 0.7 2.6 0
v 0.7 3 0
v 0.7 3.1 0
v 0.8 2.1 0
v 0.8 2.2 0
v 0.8 2.5 0
v 0.8 2.6 0
v 0.9 2.1 0
v 0.9 2.2 0
v 0.9 2.4 0
v 0.9 2.5 0
v 1.1 2.1 0
v 1.1 2.2 0
v 1.1 2.3 0
v 1.2 2.1 0
v 1.2 2.2 0
v 1.2 2.3 0
v 1.3 2 0
v 1.3 2.1 0
v 1.4 2 0
v 1.4 2.1 0
v 0 2 -0.1
v 0 5.2 -0.1
v 0.1 2.1 -0.1
v 0.1 2.2 -0.1
v 0.1 2.3 -0.1
v 0.1 2.4 -0.1
v 0.1 2.5 -0.1
v 0.1 2.6 -0.1
v 0.1 2.7 -0.1
v 0.1 2.8 -0.1
v 0.1 2.9 -0.1
v 0.1 3.1 -0.1
v 0.1 3.2 -0.1
v 0.1 3.3 -0.1
v 0.1 3.4 -0.1
v 0.1 3.6 -0.1
v 0.1 3.7 -0.1
v 0.1 3.8 -0.1
v 0.1 3.9 -0.1
v 0.1 4 -0.1
v 0.1 4.1 -0.1
v 0.1 4.2 -0.1
v 0.1 4.3 -0.1
v 0.1 4.5 -0.1
v 0.1 4.6 -0.1
v 0.1 4.7 -0.1
v 0.1 4.8 -0.1
v 0.1 4.9 -0.1
v 0.1 5 -0.1
v 0.1 5.1 -0.1
v 0.1 5.2 -0.1
v 0.2 2.3 -0.1
v 0.2 2.4 -0.1
v 0.2 2.5 -0.1
v 0.2 2.8 -0.1
v 0.2 2.9 -0.1
v 0.2 3 -0.1
v 0.2 3.1 -0.1
v 0.2 3.2 -0.1
v 0.2 4 -0.1
v 0.2 4.1 -0.1
v 0.2 4.5 -0.1
v 0.2 4.6 -0.1
v 0.2 4.7 -0.1
v 0.2 4.8 -0.1
v 0.2 4.9 -0.1
v 0.3 2.1 -0.1
v 0.3 2.2 -0.1
v 0.3 2.4 -0.1
v 0.3 2.5 -0.1
v 0.3 2.6 -0.1
v 0.3 2.7 -0.1
v 0.3 3.1 -0.1
v 0.3 3.2 -0.1
v 0.3 3.3 -0.1
v 0.3 3.4 -0.1
v 0.3 4.2 -0.1
v 0.3 4.3 -0.1
v 0.3 4.5 -0.1
v 0.3 4.6 -0.1
v 0.3 4.8 -0.1
v 0.3 5 -0.1
v 0.3 5.1 -0.1
v 0.3 5.2 -0.1
v 0.4 2.1 -0.1
v 0.4 2.3 -0.1
v 0.4 2.4 -0.1
v 0.4 2.7 -0.1
v 0.4 3.8 -0.1
v 0.4 3.9 -0.1
v 0.4 4.8 -0.1
v 0.4 4.9 -0.1
v 0.4 5 -0.1
v 0.4 5.1 -0.1
v 0.5 2.1 -0.1
v 0.5 2.2 -0.1
v 0.5 2.5 -0.1
v 0.5 2.7 -0.1
v 0.5 3.2 -0.1
v 0.5 3.3 -0.1
v 0.5 3.6 -0.1
v 0.5 3.7 -0.1
v 0.5 4.9 -0.1
v 0.5 5 -0.1
v 0.6 2.2 -0.1
v 0.6 2.3 -0.1
v 0.6 2.7 -0.1
v 0.6 2.8 -0.1
v 0.6 3 -0.1
v 0.6 3.1 -0.1
v 0.6 3.6 -0.1
v 0.6 3.7 -0.1
v 0.7 2.1 -0.1
v 0.7 2.2 -0.1
v 0.7 2.5 -0.1
v 0.7 2.6 -0.1
v 0.7 3 -0.1
v 0.7 3.1 -0.1
v 0.8 2.1 -0.1
v 0.8 2.2 -0.1
v 0.8 2.5 -0.1
v 0.8 2.6 -0.1
v 0.9 2.1 -0.1
v 0.9 2.2 -0.1
v 0.9 2.4 -0.1
v 0.9 2.5 -0.1
v 1.1 2.1 -0.1
v 1.1 2.2 -0.1
v 1.1 2.3 -0.1
v 1.2 2.1 -0.1
v 1.2 2.2 -0.1
v 1.2 2.3 -0.1
v 1.3 2 -0.1
v 1.3 2.1 -0.1
v 1.4 2 -0.1
v 1.4 2.1 -0.1
v 0 2 0
v 1.3 2 0
v 1.4 2 0
v 0 2 -0.1
v 1.3 2 -0.1
v 1.4 2 -0.1
v 0.5 2.2 0
v 0.6 2.2 0
v 0.5 2.2 -0.1
v 0.6 2.2 -0.1
v 0.1 2.3 0
v 0.2 2.3 0
v 0.1 2.3 -0.1
v 0.2 2.3 -0.1
v 0.2 2.4 0
v 0.3 2.4 0
v 0.4 2.4 0
v 0.9 2.4 0
v 0.2 2.4 -0.1
v 0.3 2.4 -0.1
v 0.4 2.4 -0.1
v 0.9 2.4 -0.1
v 0.1 2.6 0
v 0.3 2.6 0
v 0.1 2.6 -0.1
v 0.3 2.6 -0.1
v 0.3 2.7 0
v 0.4 2.7 0
v 0.5 2.7 0
v 0.6 2.7 0
v 0.3 2.7 -0.1
v 0.4 2.7 -0.1
v 0.5 2.7 -0.1
v 0.6 2.7 -0.1
v 0.2 3 0
v 0.6 3 0
v 0.7 3 0
v 0.2 3 -0.1
v 0.6 3 -0.1
v 0.7 3 -0.1
v 0.1 3.1 0
v 0.2 3.1 0
v 0.1 3.1 -0.1
v 0.2 3.1 -0.1
v 0.3 3.2 0
v 0.5 3.2 0
v 0.3 3.2 -0.1
v 0.5 3.2 -0.1
v 0.1 3.6 0
v 0.5 3.6 0
v 0.6 3.6 0
v 0.1 3.6 -0.1
v 0.5 3.6 -0.1
v 0.6 3.6 -0.1
v 0.1 3.8 0
v 0.4 3.8 0
v 0.1 3.8 -0.1
v 0.4 3.8 -0.1
v 0.1 4 0
v 0.2 4 0
v 0.1 4 -0.1
v 0.2 4 -0.1
v 0.1 4.2 0
v 0.3 4.2 0
v 0.1 4.2 -0.1
v 0.3 4.2 -0.1
v 0.1 4.5 0
v 0.2 4.5 0
v 0.3 4.5 0
v 0.1 4.5 -0.1
v 0.2 4.5 -0.1
v 0.3 4.5 -0.1
v 0.1 4.7 0
v 0.2 4.7 0
v 0.1 4.7 -0.1
v 0.2 4.7 -0.1
v 0.3 4.8 0
v 0.4 4.8 0
v 0.3 4.8 -0.1
v 0.4 4.8 -0.1
v 0.4 4.9 0
v 0.5 4.9 0
v 0.4 4.9 -0.1
v 0.5 4.9 -0.1
v 0.1 5 0
v 0.3 5 0
v 0.1 5 -0.1
v 0.3 5 -0.1
v 0.3 2.1 0
v 0.4 2.1 0
v 0.5 2.1 0
v 0.7 2.1 0
v 0.9 2.1 0
v 1.1 2.1 0
v 1.2 2.1 0
v 1.3 2.1 0
v 1.4 2.1 0
v 0.3 2.1 -0.1
v 0.4 2.1 -0.1
v 0.5 2.1 -0.1
v 0.7 2.1 -0.1
v 0.9 2.1 -0.1
v 1.1 2.1 -0.1
v 1.2 2.1 -0.1
v 1.3 2.1 -0.1
v 1.4 2.1 -0.1
v 0.1 2.2 0
v 0.3 2.2 0
v 0.7 2.2 0
v 0.8 2.2 0
v 0.9 2.2 0
v 0.1 2.2 -0.1
v 0.3 2.2 -0.1
v 0.7 2.2 -0.1
v 0.8 2.2 -0.1
v 0.9 2.2 -0.1
v 0.4 2.3 0
v 0.6 2.3 0
v 1.1 2.3 0
v 1.2 2.3 0
v 0.4 2.3 -0.1
v 0.6 2.3 -0.1
v 1.1 2.3 -0.1
v 1.2 2.3 -0.1
v 0.1 2.5 0
v 0.2 2.5 0
v 0.3 2.5 0
v 0.5 2.5 0
v 0.7 2.5 0
v 0.8 2.5 0
v 0.9 2.5 0
v 0.1 2.5 -0.1
v 0.2 2.5 -0.1
v 0.3 2.5 -0.1
v 0.5 2.5 -0.1
v 0.7 2.5 -0.1
v 0.8 2.5 -0.1
v 0.9 2.5 -0.1
v 0.7 2.6 0
v 0.8 2.6 0
v 0.7 2.6 -0.1
v 0.8 2.6 -0.1
v 0.2 2.8 0
v 0.6 2.8 0
v 0.2 2.8 -0.1
v 0.6 2.8 -0.1
v 0.1 2.9 0
v 0.2 2.9 0
v 0.1 2.9 -0.1
v 0.2 2.9 -0.1
v 0.3 3.1 0
v 0.6 3.1 0
v 0.7 3.1 0
v 0.3 3.1 -0.1
v 0.6 3.1 -0.1
v 0.7 3.1 -0.1
v 0.3 3.3 0
v 0.5 3.3 0
v 0.3 3.3 -0.1
v 0.5 3.3 -0.1
v 0.1 3.4 0
v 0.3 3.4 0
v 0.1 3.4 -0.1
v 0.3 3.4 -0.1
v 0.1 3.7 0
v 0.5 3.7 0
v 0.6 3.7 0
v 0.1 3.7 -0.1
v 0.5 3.7 -0.1
v 0.6 3.7 -0.1
v 0.1 3.9 0
v 0.4 3.9 0
v 0.1 3.9 -0.1
v 0.4 3.9 -0.1
v 0.1 4.1 0
v 0.2 4.1 0
v 0.1 4.1 -0.1
v 0.2 4.1 -0.1
v 0.1 4.3 0
v 0.3 4.3 0
v 0.1 4.3 -0.1
v 0.3 4.3 -0.1
v 0.1 4.6 0
v 0.2 4.6 0
v 0.3 4.6 0
v 0.1 4.6 -0.1
v 0.2 4.6 -0.1
v 0.3 4.6 -0.1
v 0.1 4.9 0
v 0.2 4.9 0
v 0.1 4.9 -0.1
v 0.2 4.9 -0.1
v 0.4 5 0
v 0.5 5 0
v 0.4 5 -0.1
v 0.5 5 -0.1
v 0.3 5.1 0
v 0.4 5.1 0
v 0.3 5.1 -0.1
v 0.4 5.1 -0.1
v 0 5.2 0
v 0.1 5.2 0
v 0.3 5.2 0
v 0 5.2 -0.1
v 0.1 5.2 -0.1
v 0.3 5.2 -0.1

# faces
f 3/1/1 2/1/1 1/1/1
f 4/1/1 2/1/1 3/1/1
f 7/1/1 6/1/1 5/1/1
f 8/1/1 6/1/1 7/1/1
f 11/1/1 10/1/1 9/1/1
f 12/1/1 10/1/1 11/1/1
f 15/1/1 14/1/1 13/1/1
f 16/1/1 14/1/1 15/1/1
f 19/1/1 18/1/1 17/1/1
f 20/1/1 18/1/1 19/1/1
f 23/1/1 22/1/1 21/1/1
f 24/1/1 22/1/1 23/1/1
f 27/1/1 26/1/1 25/1/1
f 28/1/1 26/1/1 27/1/1
f 31/1/1 30/1/1 29/1/1
f 32/1/1 30/1/1 31/1/1
f 33/3/1 32/3/1 31/3/1
f 34/3/1 32/3/1 33/3/1
f 35/1/2 36/1/2 37/1/2
f 37/1/2 36/1/2 38/1/2
f 39/1/2 40/1/2 41/1/2
f 41/1/2 40/1/2 42/1/2
f 43/1/2 44/1/2 45/1/2
f 45/1/2 44/1/2 46/1/2
f 47/1/2 48/1/2 49/1/2
f 49/1/2 48/1/2 50/1/2
f 51/1/2 52/1/2 53/1/2
f 53/1/2 52/1/2 54/1/2
f 55/1/2 56/1/2 57/1/2
f 57/1/2 56/1/2 58/1/2
f 59/1/2 60/1/2 61/1/2
f 61/1/2 60/1/2 62/1/2
f 63/1/2 64/1/2 65/1/2
f 65/1/2 64/1/2 66/1/2
f 67/1/2 68/1/2 69/1/2
f 69/1/2 68/1/2 70/1/2
f 71/1/2 72/1/2 73/1/2
f 73/1/2 72/1/2 74/1/2
f 75/2/2 76/2/2 77/2/2
f 77/2/2 76/2/2 78/2/2
f 79/2/2 80/2/2 81/2/2
f 81/2/2 80/2/2 82/2/2
f 83/2/2 84/2/2 85/2/2
f 85/2/2 84/2/2 86/2/2
f 87/2/2 88/2/2 89/2/2
f 89/2/2 88/2/2 90/2/2
f 89/1/2 90/1/2 91/1/2
f 91/1/2 90/1/2 92/1/2
f 93/2/2 94/2/2 95/2/2
f 95/2/2 94/2/2 96/2/2
f 97/3/2 98/3/2 99/3/2
f 99/3/2 98/3/2 100/3/2
f 101/2/2 102/2/2 103/2/2
f 103/2/2 102/2/2 104/2/2
f 105/1/2 106/1/2 107/1/2
f 107/1/2 106/1/2 108/1/2
f 109/2/2 110/2/2 111/2/2
f 111/2/2 110/2/2 112/2/2
f 113/2/2 114/2/2 115/2/2
f 115/2/2 114/2/2 116/2/2
f 117/3/2 118/3/2 119/3/2
f 119/3/2 118/3/2 120/3/2
f 121/2/2 122/2/2 123/2/2
f 123/2/2 122/2/2 124/2/2
f 125/1/2 126/1/2 127/1/2
f 127/1/2 126/1/2 128/1/2
f 129/1/2 130/1/2 131/1/2
f 131/1/2 130/1/2 132/1/2
f 133/1/2 134/1/2 135/1/2
f 135/1/2 134/1/2 136/1/2
f 137/1/2 138/1/2 139/1/2
f 139/1/2 138/1/2 140/1/2
f 141/1/2 142/1/2 143/1/2
f 143/1/2 142/1/2 144/1/2
f 145/1/2 146/1/2 147/1/2
f 147/1/2 146/1/2 148/1/2
f 149/1/2 150/1/2 151/1/2
f 151/1/2 150/1/2 152/1/2
f 153/1/2 154/1/2 155/1/2
f 155/1/2 154/1/2 156/1/2
f 157/1/2 158/1/2 159/1/2
f 159/1/2 158/1/2 160/1/2
f 161/3/2 162/3/2 163/3/2
f 163/3/2 162/3/2 164/3/2
f 165/3/2 166/3/2 167/3/2
f 167/3/2 166/3/2 168/3/2
f 169/1/2 170/1/2 171/1/2
f 171/1/2 170/1/2 172/1/2
f 173/2/2 174/2/2 175/2/2
f 175/2/2 174/2/2 176/2/2
f 177/1/2 178/1/2 179/1/2
f 179/1/2 178/1/2 180/1/2
f 181/1/2 182/1/2 183/1/2
f 183/1/2 182/1/2 184/1/2
f 183/3/2 184/3/2 185/3/2
f 185/3/2 184/3/2 186/3/2
f 187/2/2 188/2/2 189/2/2
f 189/2/2 188/2/2 190/2/2
f 193/1/3 192/1/3 191/1/3
f 194/1/3 192/1/3 193/1/3
f 195/1/3 192/1/3 194/1/3
f 196/1/3 192/1/3 195/1/3
f 197/1/3 192/1/3 196/1/3
f 198/1/3 192/1/3 197/1/3
f 199/1/3 192/1/3 198/1/3
f 200/1/3 192/1/3 199/1/3
f 201/1/3 192/1/3 200/1/3
f 202/1/3 192/1/3 201/1/3
f 203/1/3 192/1/3 202/1/3
f 204/1/3 192/1/3 203/1/3
f 205/1/3 192/1/3 204/1/3
f 206/1/3 192/1/3 205/1/3
f 207/1/3 192/1/3 206/1/3
f 208/1/3 192/1/3 207/1/3
f 209/1/3 192/1/3 208/1/3
f 210/1/3 192/1/3 209/1/3
f 211/1/3 192/1/3 210/1/3
f 212/1/3 192/1/3 211/1/3
f 213/1/3 192/1/3 212/1/3
f 214/1/3 192/1/3 213/1/3
f 215/1/3 192/1/3 214/1/3
f 216/1/3 192/1/3 215/1/3
f 217/1/3 192/1/3 216/1/3
f 218/1/3 192/1/3 217/1/3
f 219/1/3 192/1/3 218/1/3
f 220/1/3 192/1/3 219/1/3
f 221/1/3 192/1/3 220/1/3
f 222/2/3 196/2/3 195/2/3
f 223/1/3 197/1/3 196/1/3
f 223/2/3 196/2/3 222/2/3
f 224/1/3 197/1/3 223/1/3
f 225/1/3 200/1/3 199/1/3
f 225/2/3 201/2/3 200/2/3
f 226/2/3 201/2/3 225/2/3
f 228/2/3 203/2/3 202/2/3
f 229/1/3 204/1/3 203/1/3
f 229/2/3 203/2/3 228/2/3
f 230/2/3 211/2/3 210/2/3
f 231/2/3 211/2/3 230/2/3
f 232/1/3 215/1/3 214/1/3
f 233/1/3 215/1/3 232/1/3
f 234/2/3 217/2/3 216/2/3
f 235/1/3 218/1/3 217/1/3
f 235/2/3 217/2/3 234/2/3
f 236/1/3 218/1/3 235/1/3
f 237/1/3 193/1/3 191/1/3
f 237/2/3 194/2/3 193/2/3
f 238/2/3 194/2/3 237/2/3
f 239/3/3 224/3/3 223/3/3
f 240/3/3 224/3/3 239/3/3
f 241/2/3 199/2/3 198/2/3
f 242/1/3 225/1/3 199/1/3
f 242/2/3 199/2/3 241/2/3
f 243/1/3 229/1/3 228/1/3
f 243/1/3 228/1/3 227/1/3
f 244/1/3 204/1/3 229/1/3
f 244/1/3 229/1/3 243/1/3
f 245/2/3 205/2/3 204/2/3
f 245/1/3 204/1/3 244/1/3
f 246/2/3 205/2/3 245/2/3
f 247/2/3 213/2/3 212/2/3
f 248/2/3 213/2/3 247/2/3
f 249/3/3 233/3/3 232/3/3
f 250/3/3 233/3/3 249/3/3
f 252/1/3 220/1/3 219/1/3
f 253/2/3 221/2/3 220/2/3
f 253/1/3 220/1/3 252/1/3
f 254/2/3 221/2/3 253/2/3
f 255/1/3 237/1/3 191/1/3
f 258/1/3 225/1/3 242/1/3
f 259/1/3 209/1/3 208/1/3
f 260/1/3 209/1/3 259/1/3
f 261/1/3 252/1/3 251/1/3
f 261/1/3 253/1/3 252/1/3
f 262/1/3 253/1/3 261/1/3
f 263/1/3 253/1/3 262/1/3
f 264/1/3 253/1/3 263/1/3
f 265/1/3 256/1/3 255/1/3
f 265/1/3 255/1/3 191/1/3
f 266/1/3 256/1/3 265/1/3
f 267/1/3 258/1/3 257/1/3
f 268/1/3 225/1/3 258/1/3
f 268/1/3 258/1/3 267/1/3
f 269/1/3 245/1/3 244/1/3
f 270/1/3 245/1/3 269/1/3
f 271/1/3 207/1/3 206/1/3
f 272/1/3 207/1/3 271/1/3
f 273/1/3 263/1/3 262/1/3
f 274/1/3 263/1/3 273/1/3
f 275/1/3 256/1/3 266/1/3
f 276/1/3 256/1/3 275/1/3
f 277/1/3 225/1/3 268/1/3
f 278/1/3 225/1/3 277/1/3
f 279/1/3 243/1/3 227/1/3
f 280/1/3 243/1/3 279/1/3
f 281/3/3 272/3/3 271/3/3
f 282/3/3 272/3/3 281/3/3
f 283/1/3 265/1/3 191/1/3
f 285/1/3 267/1/3 257/1/3
f 287/3/3 280/3/3 279/3/3
f 288/3/3 280/3/3 287/3/3
f 289/1/3 284/1/3 283/1/3
f 289/1/3 283/1/3 191/1/3
f 290/1/3 284/1/3 289/1/3
f 291/1/3 286/1/3 285/1/3
f 291/1/3 285/1/3 257/1/3
f 292/1/3 286/1/3 291/1/3
f 293/2/3 290/2/3 289/2/3
f 293/1/3 289/1/3 191/1/3
f 294/2/3 290/2/3 293/2/3
f 295/1/3 291/1/3 257/1/3
f 296/1/3 291/1/3 295/1/3
f 297/1/3 293/1/3 191/1/3
f 300/1/3 297/1/3 191/1/3
f 300/1/3 298/1/3 297/1/3
f 301/3/3 299/3/3 298/3/3
f 301/1/3 298/1/3 300/1/3
f 302/3/3 299/3/3 301/3/3
f 303/1/3 300/1/3 191/1/3
f 304/1/3 300/1/3 303/1/3
f 305/2/3 304/2/3 303/2/3
f 306/2/3 304/2/3 305/2/3
f 307/1/4 308/1/4 309/1/4
f 309/1/4 308/1/4 310/1/4
f 310/1/4 308/1/4 311/1/4
f 311/1/4 308/1/4 312/1/4
f 312/1/4 308/1/4 313/1/4
f 313/1/4 308/1/4 314/1/4
f 314/1/4 308/1/4 315/1/4
f 315/1/4 308/1/4 316/1/4
f 316/1/4 308/1/4 317/1/4
f 317/1/4 308/1/4 318/1/4
f 318/1/4 308/1/4 319/1/4
f 319/1/4 308/1/4 320/1/4
f 320/1/4 308/1/4 321/1/4
f 321/1/4 308/1/4 322/1/4
f 322/1/4 308/1/4 323/1/4
f 323/1/4 308/1/4 324/1/4
f 324/1/4 308/1/4 325/1/4
f 325/1/4 308/1/4 326/1/4
f 326/1/4 308/1/4 327/1/4
f 327/1/4 308/1/4 328/1/4
f 328/1/4 308/1/4 329/1/4
f 329/1/4 308/1/4 330/1/4
f 330/1/4 308/1/4 331/1/4
f 331/1/4 308/1/4 332/1/4
f 332/1/4 308/1/4 333/1/4
f 333/1/4 308/1/4 334/1/4
f 334/1/4 308/1/4 335/1/4
f 335/1/4 308/1/4 336/1/4
f 336/1/4 308/1/4 337/1/4
f 311/2/4 312/2/4 338/2/4
f 312/1/4 313/1/4 339/1/4
f 338/2/4 312/2/4 339/2/4
f 339/1/4 313/1/4 340/1/4
f 315/1/4 316/1/4 341/1/4
f 316/2/4 317/2/4 341/2/4
f 341/2/4 317/2/4 342/2/4
f 318/2/4 319/2/4 344/2/4
f 319/1/4 320/1/4 345/1/4
f 344/2/4 319/2/4 345/2/4
f 326/2/4 327/2/4 346/2/4
f 346/2/4 327/2/4 347/2/4
f 330/1/4 331/1/4 348/1/4
f 348/1/4 331/1/4 349/1/4
f 332/2/4 333/2/4 350/2/4
f 333/1/4 334/1/4 351/1/4
f 350/2/4 333/2/4 351/2/4
f 351/1/4 334/1/4 352/1/4
f 307/1/4 309/1/4 353/1/4
f 309/2/4 310/2/4 353/2/4
f 353/2/4 310/2/4 354/2/4
f 339/3/4 340/3/4 355/3/4
f 355/3/4 340/3/4 356/3/4
f 314/2/4 315/2/4 357/2/4
f 315/1/4 341/1/4 358/1/4
f 357/2/4 315/2/4 358/2/4
f 344/1/4 345/1/4 359/1/4
f 343/1/4 344/1/4 359/1/4
f 345/1/4 320/1/4 360/1/4
f 359/1/4 345/1/4 360/1/4
f 320/2/4 321/2/4 361/2/4
f 360/1/4 320/1/4 361/1/4
f 361/2/4 321/2/4 362/2/4
f 328/2/4 329/2/4 363/2/4
f 363/2/4 329/2/4 364/2/4
f 348/3/4 349/3/4 365/3/4
f 365/3/4 349/3/4 366/3/4
f 335/1/4 336/1/4 368/1/4
f 336/2/4 337/2/4 369/2/4
f 368/1/4 336/1/4 369/1/4
f 369/2/4 337/2/4 370/2/4
f 307/1/4 353/1/4 371/1/4
f 358/1/4 341/1/4 374/1/4
f 324/1/4 325/1/4 375/1/4
f 375/1/4 325/1/4 376/1/4
f 367/1/4 368/1/4 377/1/4
f 368/1/4 369/1/4 377/1/4
f 377/1/4 369/1/4 378/1/4
f 378/1/4 369/1/4 379/1/4
f 379/1/4 369/1/4 380/1/4
f 371/1/4 372/1/4 381/1/4
f 307/1/4 371/1/4 381/1/4
f 381/1/4 372/1/4 382/1/4
f 373/1/4 374/1/4 383/1/4
f 374/1/4 341/1/4 384/1/4
f 383/1/4 374/1/4 384/1/4
f 360/1/4 361/1/4 385/1/4
f 385/1/4 361/1/4 386/1/4
f 322/1/4 323/1/4 387/1/4
f 387/1/4 323/1/4 388/1/4
f 378/1/4 379/1/4 389/1/4
f 389/1/4 379/1/4 390/1/4
f 382/1/4 372/1/4 391/1/4
f 391/1/4 372/1/4 392/1/4
f 384/1/4 341/1/4 393/1/4
f 393/1/4 341/1/4 394/1/4
f 343/1/4 359/1/4 395/1/4
f 395/1/4 359/1/4 396/1/4
f 387/3/4 388/3/4 397/3/4
f 397/3/4 388/3/4 398/3/4
f 307/1/4 381/1/4 399/1/4
f 373/1/4 383/1/4 401/1/4
f 395/3/4 396/3/4 403/3/4
f 403/3/4 396/3/4 404/3/4
f 399/1/4 400/1/4 405/1/4
f 307/1/4 399/1/4 405/1/4
f 405/1/4 400/1/4 406/1/4
f 401/1/4 402/1/4 407/1/4
f 373/1/4 401/1/4 407/1/4
f 407/1/4 402/1/4 408/1/4
f 405/2/4 406/2/4 409/2/4
f 307/1/4 405/1/4 409/1/4
f 409/2/4 406/2/4 410/2/4
f 373/1/4 407/1/4 411/1/4
f 411/1/4 407/1/4 412/1/4
f 307/1/4 409/1/4 413/1/4
f 307/1/4 413/1/4 416/1/4
f 413/1/4 414/1/4 416/1/4
f 414/3/4 415/3/4 417/3/4
f 416/1/4 414/1/4 417/1/4
f 417/3/4 415/3/4 418/3/4
f 307/1/4 416/1/4 419/1/4
f 419/1/4 416/1/4 420/1/4
f 419/2/4 420/2/4 421/2/4
f 421/2/4 420/2/4 422/2/4
f 426/1/5 424/1/5 423/1/5
f 427/2/5 425/2/5 424/2/5
f 427/1/5 424/1/5 426/1/5
f 428/2/5 425/2/5 427/2/5
f 431/1/5 430/1/5 429/1/5
f 432/1/5 430/1/5 431/1/5
f 435/2/5 434/2/5 433/2/5
f 436/2/5 434/2/5 435/2/5
f 441/3/5 438/3/5 437/3/5
f 442/3/5 438/3/5 441/3/5
f 443/1/5 440/1/5 439/1/5
f 444/1/5 440/1/5 443/1/5
f 447/2/5 446/2/5 445/2/5
f 448/2/5 446/2/5 447/2/5
f 453/1/5 450/1/5 449/1/5
f 454/1/5 450/1/5 453/1/5
f 455/1/5 452/1/5 451/1/5
f 456/1/5 452/1/5 455/1/5
f 460/1/5 458/1/5 457/1/5
f 461/3/5 459/3/5 458/3/5
f 461/1/5 458/1/5 460/1/5
f 462/3/5 459/3/5 461/3/5
f 465/2/5 464/2/5 463/2/5
f 466/2/5 464/2/5 465/2/5
f 469/1/5 468/1/5 467/1/5
f 470/1/5 468/1/5 469/1/5
f 474/1/5 472/1/5 471/1/5
f 475/3/5 473/3/5 472/3/5
f 475/1/5 472/1/5 474/1/5
f 476/3/5 473/3/5 475/3/5
f 479/1/5 478/1/5 477/1/5
f 480/1/5 478/1/5 479/1/5
f 483/2/5 482/2/5 481/2/5
f 484/2/5 482/2/5 483/2/5
f 487/2/5 486/2/5 485/2/5
f 488/2/5 486/2/5 487/2/5
f 492/1/5 490/1/5 489/1/5
f 493/3/5 491/3/5 490/3/5
f 493/1/5 490/1/5 492/1/5
f 494/3/5 491/3/5 493/3/5
f 497/2/5 496/2/5 495/2/5
f 498/2/5 496/2/5 497/2/5
f 501/1/5 500/1/5 499/1/5
f 502/1/5 500/1/5 501/1/5
f 505/1/5 504/1/5 503/1/5
f 506/1/5 504/1/5 505/1/5
f 509/1/5 508/1/5 507/1/5
f 510/1/5 508/1/5 509/1/5
f 511/1/6 512/1/6 520/1/6
f 520/1/6 512/1/6 521/1/6
f 513/1/6 514/1/6 522/1/6
f 522/1/6 514/1/6 523/1/6
f 515/1/6 516/1/6 524/1/6
f 524/1/6 516/1/6 525/1/6
f 517/1/6 518/1/6 526/1/6
f 518/2/6 519/2/6 527/2/6
f 526/1/6 518/1/6 527/1/6
f 527/2/6 519/2/6 528/2/6
f 529/2/6 530/2/6 534/2/6
f 534/2/6 530/2/6 535/2/6
f 531/1/6 532/1/6 536/1/6
f 532/2/6 533/2/6 537/2/6
f 536/1/6 532/1/6 537/1/6
f 537/2/6 533/2/6 538/2/6
f 539/1/6 540/1/6 543/1/6
f 543/1/6 540/1/6 544/1/6
f 541/3/6 542/3/6 545/3/6
f 545/3/6 542/3/6 546/3/6
f 547/1/6 548/1/6 554/1/6
f 548/3/6 549/3/6 555/3/6
f 554/1/6 548/1/6 555/1/6
f 555/3/6 549/3/6 556/3/6
f 550/1/6 551/1/6 557/1/6
f 557/1/6 551/1/6 558/1/6
f 552/1/6 553/1/6 559/1/6
f 559/1/6 553/1/6 560/1/6
f 561/1/6 562/1/6 563/1/6
f 563/1/6 562/1/6 564/1/6
f 565/1/6 566/1/6 567/1/6
f 567/1/6 566/1/6 568/1/6
f 569/2/6 570/2/6 571/2/6
f 571/2/6 570/2/6 572/2/6
f 573/1/6 574/1/6 576/1/6
f 574/3/6 575/3/6 577/3/6
f 576/1/6 574/1/6 577/1/6
f 577/3/6 575/3/6 578/3/6
f 579/1/6 580/1/6 581/1/6
f 581/1/6 580/1/6 582/1/6
f 583/2/6 584/2/6 585/2/6
f 585/2/6 584/2/6 586/2/6
f 587/1/6 588/1/6 590/1/6
f 588/3/6 589/3/6 591/3/6
f 590/1/6 588/1/6 591/1/6
f 591/3/6 589/3/6 592/3/6
f 593/1/6 594/1/6 595/1/6
f 595/1/6 594/1/6 596/1/6
f 597/2/6 598/2/6 599/2/6
f 599/2/6 598/2/6 600/2/6
f 601/2/6 602/2/6 603/2/6
f 603/2/6 602/2/6 604/2/6
f 605/1/6 606/1/6 608/1/6
f 606/3/6 607/3/6 609/3/6
f 608/1/6 606/1/6 609/1/6
f 609/3/6 607/3/6 610/3/6
f 611/1/6 612/1/6 613/1/6
f 613/1/6 612/1/6 614/1/6
f 615/1/6 616/1/6 617/1/6
f 617/1/6 616/1/6 618/1/6
f 619/1/6 620/1/6 621/1/6
f 621/1/6 620/1/6 622/1/6
f 623/1/6 624/1/6 626/1/6
f 624/2/6 625/2/6 627/2/6
f 626/1/6 624/1/6 627/1/6
f 627/2/6 625/2/6 628/2/6
